<svg viewBox="0 0 600 860" xmlns="http://www.w3.org/2000/svg" shape-rendering="crispEdges" role="img" aria-label="FLOW mobile banner">
<rect x="0" y="0" width="600" height="860" fill="#1596D6"/>
<rect x="0" y="0" width="36" height="36" fill="#2596E8"/>
<rect x="72" y="0" width="36" height="36" fill="#2596E8"/>
<rect x="144" y="0" width="36" height="36" fill="#2596E8"/>
<rect x="216" y="0" width="36" height="36" fill="#2596E8"/>
<rect x="288" y="0" width="36" height="36" fill="#2596E8"/>
<rect x="360" y="0" width="36" height="36" fill="#2596E8"/>
<rect x="432" y="0" width="36" height="36" fill="#2596E8"/>
<rect x="504" y="0" width="36" height="36" fill="#2596E8"/>
<rect x="576" y="0" width="36" height="36" fill="#2596E8"/>
<rect x="36" y="36" width="36" height="36" fill="#2596E8"/>
<rect x="108" y="36" width="36" height="36" fill="#2596E8"/>
<rect x="180" y="36" width="36" height="36" fill="#2596E8"/>
<rect x="252" y="36" width="36" height="36" fill="#2596E8"/>
<rect x="324" y="36" width="36" height="36" fill="#2596E8"/>
<rect x="396" y="36" width="36" height="36" fill="#2596E8"/>
<rect x="468" y="36" width="36" height="36" fill="#2596E8"/>
<rect x="540" y="36" width="36" height="36" fill="#2596E8"/>
<rect x="0" y="72" width="36" height="36" fill="#2596E8"/>
<rect x="72" y="72" width="36" height="36" fill="#2596E8"/>
<rect x="144" y="72" width="36" height="36" fill="#2596E8"/>
<rect x="216" y="72" width="36" height="36" fill="#2596E8"/>
<rect x="288" y="72" width="36" height="36" fill="#2596E8"/>
<rect x="360" y="72" width="36" height="36" fill="#2596E8"/>
<rect x="432" y="72" width="36" height="36" fill="#2596E8"/>
<rect x="504" y="72" width="36" height="36" fill="#2596E8"/>
<rect x="576" y="72" width="36" height="36" fill="#2596E8"/>
<rect x="36" y="108" width="36" height="36" fill="#2596E8"/>
<rect x="108" y="108" width="36" height="36" fill="#2596E8"/>
<rect x="180" y="108" width="36" height="36" fill="#2596E8"/>
<rect x="252" y="108" width="36" height="36" fill="#2596E8"/>
<rect x="324" y="108" width="36" height="36" fill="#2596E8"/>
<rect x="396" y="108" width="36" height="36" fill="#2596E8"/>
<rect x="468" y="108" width="36" height="36" fill="#2596E8"/>
<rect x="540" y="108" width="36" height="36" fill="#2596E8"/>
<rect x="0" y="144" width="36" height="36" fill="#2596E8"/>
<rect x="72" y="144" width="36" height="36" fill="#2596E8"/>
<rect x="144" y="144" width="36" height="36" fill="#2596E8"/>
<rect x="216" y="144" width="36" height="36" fill="#2596E8"/>
<rect x="288" y="144" width="36" height="36" fill="#2596E8"/>
<rect x="360" y="144" width="36" height="36" fill="#2596E8"/>
<rect x="432" y="144" width="36" height="36" fill="#2596E8"/>
<rect x="504" y="144" width="36" height="36" fill="#2596E8"/>
<rect x="576" y="144" width="36" height="36" fill="#2596E8"/>
<rect x="36" y="180" width="36" height="36" fill="#2596E8"/>
<rect x="108" y="180" width="36" height="36" fill="#2596E8"/>
<rect x="180" y="180" width="36" height="36" fill="#2596E8"/>
<rect x="252" y="180" width="36" height="36" fill="#2596E8"/>
<rect x="324" y="180" width="36" height="36" fill="#2596E8"/>
<rect x="396" y="180" width="36" height="36" fill="#2596E8"/>
<rect x="468" y="180" width="36" height="36" fill="#2596E8"/>
<rect x="540" y="180" width="36" height="36" fill="#2596E8"/>
<rect x="0" y="216" width="36" height="36" fill="#2596E8"/>
<rect x="72" y="216" width="36" height="36" fill="#2596E8"/>
<rect x="144" y="216" width="36" height="36" fill="#2596E8"/>
<rect x="216" y="216" width="36" height="36" fill="#2596E8"/>
<rect x="288" y="216" width="36" height="36" fill="#2596E8"/>
<rect x="360" y="216" width="36" height="36" fill="#2596E8"/>
<rect x="432" y="216" width="36" height="36" fill="#2596E8"/>
<rect x="504" y="216" width="36" height="36" fill="#2596E8"/>
<rect x="576" y="216" width="36" height="36" fill="#2596E8"/>
<rect x="36" y="252" width="36" height="36" fill="#2596E8"/>
<rect x="108" y="252" width="36" height="36" fill="#2596E8"/>
<rect x="180" y="252" width="36" height="36" fill="#2596E8"/>
<rect x="252" y="252" width="36" height="36" fill="#2596E8"/>
<rect x="324" y="252" width="36" height="36" fill="#2596E8"/>
<rect x="396" y="252" width="36" height="36" fill="#2596E8"/>
<rect x="468" y="252" width="36" height="36" fill="#2596E8"/>
<rect x="540" y="252" width="36" height="36" fill="#2596E8"/>
<rect x="0" y="288" width="36" height="36" fill="#2596E8"/>
<rect x="72" y="288" width="36" height="36" fill="#2596E8"/>
<rect x="144" y="288" width="36" height="36" fill="#2596E8"/>
<rect x="216" y="288" width="36" height="36" fill="#2596E8"/>
<rect x="288" y="288" width="36" height="36" fill="#2596E8"/>
<rect x="360" y="288" width="36" height="36" fill="#2596E8"/>
<rect x="432" y="288" width="36" height="36" fill="#2596E8"/>
<rect x="504" y="288" width="36" height="36" fill="#2596E8"/>
<rect x="576" y="288" width="36" height="36" fill="#2596E8"/>
<rect x="36" y="324" width="36" height="36" fill="#2596E8"/>
<rect x="108" y="324" width="36" height="36" fill="#2596E8"/>
<rect x="180" y="324" width="36" height="36" fill="#2596E8"/>
<rect x="252" y="324" width="36" height="36" fill="#2596E8"/>
<rect x="324" y="324" width="36" height="36" fill="#2596E8"/>
<rect x="396" y="324" width="36" height="36" fill="#2596E8"/>
<rect x="468" y="324" width="36" height="36" fill="#2596E8"/>
<rect x="540" y="324" width="36" height="36" fill="#2596E8"/>
<rect x="0" y="360" width="36" height="36" fill="#2596E8"/>
<rect x="72" y="360" width="36" height="36" fill="#2596E8"/>
<rect x="144" y="360" width="36" height="36" fill="#2596E8"/>
<rect x="216" y="360" width="36" height="36" fill="#2596E8"/>
<rect x="288" y="360" width="36" height="36" fill="#2596E8"/>
<rect x="360" y="360" width="36" height="36" fill="#2596E8"/>
<rect x="432" y="360" width="36" height="36" fill="#2596E8"/>
<rect x="504" y="360" width="36" height="36" fill="#2596E8"/>
<rect x="576" y="360" width="36" height="36" fill="#2596E8"/>
<rect x="36" y="396" width="36" height="36" fill="#2596E8"/>
<rect x="108" y="396" width="36" height="36" fill="#2596E8"/>
<rect x="180" y="396" width="36" height="36" fill="#2596E8"/>
<rect x="252" y="396" width="36" height="36" fill="#2596E8"/>
<rect x="324" y="396" width="36" height="36" fill="#2596E8"/>
<rect x="396" y="396" width="36" height="36" fill="#2596E8"/>
<rect x="468" y="396" width="36" height="36" fill="#2596E8"/>
<rect x="540" y="396" width="36" height="36" fill="#2596E8"/>
<rect x="0" y="432" width="36" height="36" fill="#2596E8"/>
<rect x="72" y="432" width="36" height="36" fill="#2596E8"/>
<rect x="144" y="432" width="36" height="36" fill="#2596E8"/>
<rect x="216" y="432" width="36" height="36" fill="#2596E8"/>
<rect x="288" y="432" width="36" height="36" fill="#2596E8"/>
<rect x="360" y="432" width="36" height="36" fill="#2596E8"/>
<rect x="432" y="432" width="36" height="36" fill="#2596E8"/>
<rect x="504" y="432" width="36" height="36" fill="#2596E8"/>
<rect x="576" y="432" width="36" height="36" fill="#2596E8"/>
<rect x="36" y="468" width="36" height="36" fill="#2596E8"/>
<rect x="108" y="468" width="36" height="36" fill="#2596E8"/>
<rect x="180" y="468" width="36" height="36" fill="#2596E8"/>
<rect x="252" y="468" width="36" height="36" fill="#2596E8"/>
<rect x="324" y="468" width="36" height="36" fill="#2596E8"/>
<rect x="396" y="468" width="36" height="36" fill="#2596E8"/>
<rect x="468" y="468" width="36" height="36" fill="#2596E8"/>
<rect x="540" y="468" width="36" height="36" fill="#2596E8"/>
<rect x="0" y="504" width="36" height="36" fill="#2596E8"/>
<rect x="72" y="504" width="36" height="36" fill="#2596E8"/>
<rect x="144" y="504" width="36" height="36" fill="#2596E8"/>
<rect x="216" y="504" width="36" height="36" fill="#2596E8"/>
<rect x="288" y="504" width="36" height="36" fill="#2596E8"/>
<rect x="360" y="504" width="36" height="36" fill="#2596E8"/>
<rect x="432" y="504" width="36" height="36" fill="#2596E8"/>
<rect x="504" y="504" width="36" height="36" fill="#2596E8"/>
<rect x="576" y="504" width="36" height="36" fill="#2596E8"/>
<rect x="36" y="540" width="36" height="36" fill="#2596E8"/>
<rect x="108" y="540" width="36" height="36" fill="#2596E8"/>
<rect x="180" y="540" width="36" height="36" fill="#2596E8"/>
<rect x="252" y="540" width="36" height="36" fill="#2596E8"/>
<rect x="324" y="540" width="36" height="36" fill="#2596E8"/>
<rect x="396" y="540" width="36" height="36" fill="#2596E8"/>
<rect x="468" y="540" width="36" height="36" fill="#2596E8"/>
<rect x="540" y="540" width="36" height="36" fill="#2596E8"/>
<rect x="0" y="576" width="36" height="36" fill="#2596E8"/>
<rect x="72" y="576" width="36" height="36" fill="#2596E8"/>
<rect x="144" y="576" width="36" height="36" fill="#2596E8"/>
<rect x="216" y="576" width="36" height="36" fill="#2596E8"/>
<rect x="288" y="576" width="36" height="36" fill="#2596E8"/>
<rect x="360" y="576" width="36" height="36" fill="#2596E8"/>
<rect x="432" y="576" width="36" height="36" fill="#2596E8"/>
<rect x="504" y="576" width="36" height="36" fill="#2596E8"/>
<rect x="576" y="576" width="36" height="36" fill="#2596E8"/>
<rect x="36" y="612" width="36" height="36" fill="#2596E8"/>
<rect x="108" y="612" width="36" height="36" fill="#2596E8"/>
<rect x="180" y="612" width="36" height="36" fill="#2596E8"/>
<rect x="252" y="612" width="36" height="36" fill="#2596E8"/>
<rect x="324" y="612" width="36" height="36" fill="#2596E8"/>
<rect x="396" y="612" width="36" height="36" fill="#2596E8"/>
<rect x="468" y="612" width="36" height="36" fill="#2596E8"/>
<rect x="540" y="612" width="36" height="36" fill="#2596E8"/>
<rect x="0" y="648" width="36" height="36" fill="#2596E8"/>
<rect x="72" y="648" width="36" height="36" fill="#2596E8"/>
<rect x="144" y="648" width="36" height="36" fill="#2596E8"/>
<rect x="216" y="648" width="36" height="36" fill="#2596E8"/>
<rect x="288" y="648" width="36" height="36" fill="#2596E8"/>
<rect x="360" y="648" width="36" height="36" fill="#2596E8"/>
<rect x="432" y="648" width="36" height="36" fill="#2596E8"/>
<rect x="504" y="648" width="36" height="36" fill="#2596E8"/>
<rect x="576" y="648" width="36" height="36" fill="#2596E8"/>
<rect x="36" y="684" width="36" height="36" fill="#2596E8"/>
<rect x="108" y="684" width="36" height="36" fill="#2596E8"/>
<rect x="180" y="684" width="36" height="36" fill="#2596E8"/>
<rect x="252" y="684" width="36" height="36" fill="#2596E8"/>
<rect x="324" y="684" width="36" height="36" fill="#2596E8"/>
<rect x="396" y="684" width="36" height="36" fill="#2596E8"/>
<rect x="468" y="684" width="36" height="36" fill="#2596E8"/>
<rect x="540" y="684" width="36" height="36" fill="#2596E8"/>
<rect x="0" y="720" width="36" height="36" fill="#2596E8"/>
<rect x="72" y="720" width="36" height="36" fill="#2596E8"/>
<rect x="144" y="720" width="36" height="36" fill="#2596E8"/>
<rect x="216" y="720" width="36" height="36" fill="#2596E8"/>
<rect x="288" y="720" width="36" height="36" fill="#2596E8"/>
<rect x="360" y="720" width="36" height="36" fill="#2596E8"/>
<rect x="432" y="720" width="36" height="36" fill="#2596E8"/>
<rect x="504" y="720" width="36" height="36" fill="#2596E8"/>
<rect x="576" y="720" width="36" height="36" fill="#2596E8"/>
<rect x="36" y="756" width="36" height="36" fill="#2596E8"/>
<rect x="108" y="756" width="36" height="36" fill="#2596E8"/>
<rect x="180" y="756" width="36" height="36" fill="#2596E8"/>
<rect x="252" y="756" width="36" height="36" fill="#2596E8"/>
<rect x="324" y="756" width="36" height="36" fill="#2596E8"/>
<rect x="396" y="756" width="36" height="36" fill="#2596E8"/>
<rect x="468" y="756" width="36" height="36" fill="#2596E8"/>
<rect x="540" y="756" width="36" height="36" fill="#2596E8"/>
<rect x="0" y="792" width="36" height="36" fill="#2596E8"/>
<rect x="72" y="792" width="36" height="36" fill="#2596E8"/>
<rect x="144" y="792" width="36" height="36" fill="#2596E8"/>
<rect x="216" y="792" width="36" height="36" fill="#2596E8"/>
<rect x="288" y="792" width="36" height="36" fill="#2596E8"/>
<rect x="360" y="792" width="36" height="36" fill="#2596E8"/>
<rect x="432" y="792" width="36" height="36" fill="#2596E8"/>
<rect x="504" y="792" width="36" height="36" fill="#2596E8"/>
<rect x="576" y="792" width="36" height="36" fill="#2596E8"/>
<rect x="36" y="828" width="36" height="36" fill="#2596E8"/>
<rect x="108" y="828" width="36" height="36" fill="#2596E8"/>
<rect x="180" y="828" width="36" height="36" fill="#2596E8"/>
<rect x="252" y="828" width="36" height="36" fill="#2596E8"/>
<rect x="324" y="828" width="36" height="36" fill="#2596E8"/>
<rect x="396" y="828" width="36" height="36" fill="#2596E8"/>
<rect x="468" y="828" width="36" height="36" fill="#2596E8"/>
<rect x="540" y="828" width="36" height="36" fill="#2596E8"/>
<rect x="351" y="97" width="6" height="6" fill="#FFFFFF" opacity="0.16"/>
<rect x="69" y="57" width="10" height="10" fill="#FFFFFF" opacity="0.16"/>
<rect x="116" y="207" width="10" height="10" fill="#FFFFFF" opacity="0.16"/>
<rect x="79" y="279" width="6" height="6" fill="#FFFFFF" opacity="0.16"/>
<rect x="58" y="64" width="6" height="6" fill="#FFFFFF" opacity="0.16"/>
<rect x="448" y="55" width="6" height="6" fill="#FFFFFF" opacity="0.16"/>
<rect x="112" y="302" width="6" height="6" fill="#FFFFFF" opacity="0.16"/>
<rect x="80" y="309" width="6" height="6" fill="#FFFFFF" opacity="0.16"/>
<rect x="248" y="342" width="10" height="10" fill="#FFFFFF" opacity="0.16"/>
<rect x="83" y="315" width="10" height="10" fill="#FFFFFF" opacity="0.16"/>
<rect x="426" y="45" width="6" height="6" fill="#FFFFFF" opacity="0.16"/>
<rect x="67" y="305" width="6" height="6" fill="#FFFFFF" opacity="0.16"/>
<rect x="316" y="234" width="6" height="6" fill="#FFFFFF" opacity="0.16"/>
<rect x="573" y="80" width="10" height="10" fill="#FFFFFF" opacity="0.16"/>
<g transform="translate(36.0,90) scale(2.2)">
<rect x="216" y="0" width="6" height="6" fill="#FFD166"/>
<rect x="78" y="6" width="84" height="6" fill="#0B1E36"/>
<rect x="210" y="6" width="6" height="6" fill="#FFD166"/>
<rect x="216" y="6" width="6" height="6" fill="#F4FDFF"/>
<rect x="222" y="6" width="6" height="6" fill="#FFD166"/>
<rect x="60" y="12" width="18" height="6" fill="#0B1E36"/>
<rect x="78" y="12" width="18" height="6" fill="#F4FDFF"/>
<rect x="96" y="12" width="66" height="6" fill="#1D9BDE"/>
<rect x="162" y="12" width="18" height="6" fill="#0B1E36"/>
<rect x="216" y="12" width="6" height="6" fill="#FFD166"/>
<rect x="12" y="18" width="6" height="6" fill="#FFD166"/>
<rect x="48" y="18" width="12" height="6" fill="#0B1E36"/>
<rect x="60" y="18" width="36" height="6" fill="#F4FDFF"/>
<rect x="96" y="18" width="72" height="6" fill="#1D9BDE"/>
<rect x="168" y="18" width="12" height="6" fill="#43C2F2"/>
<rect x="180" y="18" width="12" height="6" fill="#0B1E36"/>
<rect x="6" y="24" width="6" height="6" fill="#FFD166"/>
<rect x="12" y="24" width="6" height="6" fill="#F4FDFF"/>
<rect x="18" y="24" width="6" height="6" fill="#FFD166"/>
<rect x="42" y="24" width="6" height="6" fill="#0B1E36"/>
<rect x="48" y="24" width="18" height="6" fill="#F4FDFF"/>
<rect x="66" y="24" width="12" height="6" fill="#0A3E5C"/>
<rect x="78" y="24" width="24" height="6" fill="#F4FDFF"/>
<rect x="102" y="24" width="42" height="6" fill="#1D9BDE"/>
<rect x="144" y="24" width="12" height="6" fill="#0A3E5C"/>
<rect x="156" y="24" width="12" height="6" fill="#1D9BDE"/>
<rect x="168" y="24" width="24" height="6" fill="#43C2F2"/>
<rect x="192" y="24" width="6" height="6" fill="#0B1E36"/>
<rect x="12" y="30" width="6" height="6" fill="#FFD166"/>
<rect x="36" y="30" width="6" height="6" fill="#0B1E36"/>
<rect x="42" y="30" width="6" height="6" fill="#1D9BDE"/>
<rect x="48" y="30" width="30" height="6" fill="#F4FDFF"/>
<rect x="78" y="30" width="6" height="6" fill="#0A3E5C"/>
<rect x="84" y="30" width="18" height="6" fill="#F4FDFF"/>
<rect x="102" y="30" width="54" height="6" fill="#1D9BDE"/>
<rect x="156" y="30" width="6" height="6" fill="#0A3E5C"/>
<rect x="162" y="30" width="6" height="6" fill="#1D9BDE"/>
<rect x="168" y="30" width="30" height="6" fill="#43C2F2"/>
<rect x="198" y="30" width="6" height="6" fill="#0B1E36"/>
<rect x="30" y="36" width="6" height="6" fill="#0B1E36"/>
<rect x="36" y="36" width="12" height="6" fill="#1D9BDE"/>
<rect x="48" y="36" width="12" height="6" fill="#F4FDFF"/>
<rect x="60" y="36" width="6" height="6" fill="#0A3E5C"/>
<rect x="66" y="36" width="36" height="6" fill="#F4FDFF"/>
<rect x="102" y="36" width="36" height="6" fill="#1D9BDE"/>
<rect x="138" y="36" width="6" height="6" fill="#0A3E5C"/>
<rect x="144" y="36" width="24" height="6" fill="#1D9BDE"/>
<rect x="168" y="36" width="36" height="6" fill="#43C2F2"/>
<rect x="204" y="36" width="6" height="6" fill="#0B1E36"/>
<rect x="30" y="42" width="6" height="6" fill="#0B1E36"/>
<rect x="36" y="42" width="18" height="6" fill="#1D9BDE"/>
<rect x="54" y="42" width="42" height="6" fill="#F4FDFF"/>
<rect x="96" y="42" width="72" height="6" fill="#1D9BDE"/>
<rect x="168" y="42" width="36" height="6" fill="#43C2F2"/>
<rect x="204" y="42" width="6" height="6" fill="#0B1E36"/>
<rect x="24" y="48" width="6" height="6" fill="#0B1E36"/>
<rect x="30" y="48" width="24" height="6" fill="#1D9BDE"/>
<rect x="54" y="48" width="42" height="6" fill="#F4FDFF"/>
<rect x="96" y="48" width="72" height="6" fill="#1D9BDE"/>
<rect x="168" y="48" width="42" height="6" fill="#43C2F2"/>
<rect x="210" y="48" width="6" height="6" fill="#0B1E36"/>
<rect x="24" y="54" width="6" height="6" fill="#0B1E36"/>
<rect x="30" y="54" width="36" height="6" fill="#1D9BDE"/>
<rect x="66" y="54" width="18" height="6" fill="#F4FDFF"/>
<rect x="84" y="54" width="84" height="6" fill="#1D9BDE"/>
<rect x="168" y="54" width="42" height="6" fill="#43C2F2"/>
<rect x="210" y="54" width="6" height="6" fill="#0B1E36"/>
<rect x="24" y="60" width="6" height="6" fill="#0B1E36"/>
<rect x="30" y="60" width="138" height="6" fill="#1D9BDE"/>
<rect x="168" y="60" width="42" height="6" fill="#43C2F2"/>
<rect x="210" y="60" width="6" height="6" fill="#0B1E36"/>
<rect x="24" y="66" width="6" height="6" fill="#0B1E36"/>
<rect x="30" y="66" width="36" height="6" fill="#1D9BDE"/>
<rect x="66" y="66" width="12" height="6" fill="#0B1E36"/>
<rect x="78" y="66" width="66" height="6" fill="#1D9BDE"/>
<rect x="144" y="66" width="12" height="6" fill="#0B1E36"/>
<rect x="156" y="66" width="12" height="6" fill="#1D9BDE"/>
<rect x="168" y="66" width="42" height="6" fill="#43C2F2"/>
<rect x="210" y="66" width="6" height="6" fill="#0B1E36"/>
<rect x="24" y="72" width="6" height="6" fill="#0B1E36"/>
<rect x="30" y="72" width="30" height="6" fill="#1D9BDE"/>
<rect x="60" y="72" width="6" height="6" fill="#0B1E36"/>
<rect x="66" y="72" width="12" height="6" fill="#1D9BDE"/>
<rect x="78" y="72" width="6" height="6" fill="#0B1E36"/>
<rect x="84" y="72" width="54" height="6" fill="#1D9BDE"/>
<rect x="138" y="72" width="6" height="6" fill="#0B1E36"/>
<rect x="144" y="72" width="12" height="6" fill="#1D9BDE"/>
<rect x="156" y="72" width="6" height="6" fill="#0B1E36"/>
<rect x="162" y="72" width="6" height="6" fill="#1D9BDE"/>
<rect x="168" y="72" width="42" height="6" fill="#43C2F2"/>
<rect x="210" y="72" width="6" height="6" fill="#0B1E36"/>
<rect x="24" y="78" width="6" height="6" fill="#0B1E36"/>
<rect x="30" y="78" width="24" height="6" fill="#1D9BDE"/>
<rect x="54" y="78" width="6" height="6" fill="#0B1E36"/>
<rect x="60" y="78" width="24" height="6" fill="#1D9BDE"/>
<rect x="84" y="78" width="6" height="6" fill="#0B1E36"/>
<rect x="90" y="78" width="42" height="6" fill="#1D9BDE"/>
<rect x="132" y="78" width="6" height="6" fill="#0B1E36"/>
<rect x="138" y="78" width="24" height="6" fill="#1D9BDE"/>
<rect x="162" y="78" width="6" height="6" fill="#0B1E36"/>
<rect x="168" y="78" width="42" height="6" fill="#43C2F2"/>
<rect x="210" y="78" width="6" height="6" fill="#0B1E36"/>
<rect x="6" y="84" width="6" height="6" fill="#FFD166"/>
<rect x="18" y="84" width="6" height="6" fill="#0B1E36"/>
<rect x="24" y="84" width="72" height="6" fill="#1D9BDE"/>
<rect x="96" y="84" width="36" height="6" fill="#0A2136"/>
<rect x="132" y="84" width="24" height="6" fill="#1D9BDE"/>
<rect x="156" y="84" width="6" height="6" fill="#8FF0DA"/>
<rect x="162" y="84" width="54" height="6" fill="#43C2F2"/>
<rect x="216" y="84" width="6" height="6" fill="#0B1E36"/>
<rect x="0" y="90" width="6" height="6" fill="#FFD166"/>
<rect x="6" y="90" width="6" height="6" fill="#F4FDFF"/>
<rect x="12" y="90" width="6" height="6" fill="#FFD166"/>
<rect x="24" y="90" width="6" height="6" fill="#0B1E36"/>
<rect x="30" y="90" width="60" height="6" fill="#1D9BDE"/>
<rect x="90" y="90" width="12" height="6" fill="#0A2136"/>
<rect x="102" y="90" width="24" height="6" fill="#EAF8FF"/>
<rect x="126" y="90" width="12" height="6" fill="#0A2136"/>
<rect x="138" y="90" width="12" height="6" fill="#1D9BDE"/>
<rect x="150" y="90" width="6" height="6" fill="#8FF0DA"/>
<rect x="156" y="90" width="6" height="6" fill="#E6FCF6"/>
<rect x="162" y="90" width="6" height="6" fill="#8FF0DA"/>
<rect x="168" y="90" width="18" height="6" fill="#FF9683"/>
<rect x="186" y="90" width="24" height="6" fill="#43C2F2"/>
<rect x="210" y="90" width="6" height="6" fill="#0B1E36"/>
<rect x="6" y="96" width="6" height="6" fill="#FFD166"/>
<rect x="24" y="96" width="6" height="6" fill="#0B1E36"/>
<rect x="30" y="96" width="12" height="6" fill="#1D9BDE"/>
<rect x="42" y="96" width="18" height="6" fill="#FF9683"/>
<rect x="60" y="96" width="24" height="6" fill="#1D9BDE"/>
<rect x="84" y="96" width="12" height="6" fill="#0A2136"/>
<rect x="96" y="96" width="36" height="6" fill="#EAF8FF"/>
<rect x="132" y="96" width="12" height="6" fill="#0A2136"/>
<rect x="144" y="96" width="12" height="6" fill="#1D9BDE"/>
<rect x="156" y="96" width="6" height="6" fill="#8FF0DA"/>
<rect x="162" y="96" width="30" height="6" fill="#FF9683"/>
<rect x="192" y="96" width="18" height="6" fill="#43C2F2"/>
<rect x="210" y="96" width="6" height="6" fill="#0B1E36"/>
<rect x="24" y="102" width="6" height="6" fill="#0B1E36"/>
<rect x="30" y="102" width="6" height="6" fill="#1D9BDE"/>
<rect x="36" y="102" width="30" height="6" fill="#FF9683"/>
<rect x="66" y="102" width="18" height="6" fill="#1D9BDE"/>
<rect x="84" y="102" width="12" height="6" fill="#0A2136"/>
<rect x="96" y="102" width="36" height="6" fill="#EAF8FF"/>
<rect x="132" y="102" width="12" height="6" fill="#0A2136"/>
<rect x="144" y="102" width="6" height="6" fill="#1D9BDE"/>
<rect x="150" y="102" width="18" height="6" fill="#43C2F2"/>
<rect x="168" y="102" width="18" height="6" fill="#FF9683"/>
<rect x="186" y="102" width="24" height="6" fill="#43C2F2"/>
<rect x="210" y="102" width="6" height="6" fill="#0B1E36"/>
<rect x="24" y="108" width="6" height="6" fill="#0B1E36"/>
<rect x="30" y="108" width="12" height="6" fill="#1D9BDE"/>
<rect x="42" y="108" width="18" height="6" fill="#FF9683"/>
<rect x="60" y="108" width="30" height="6" fill="#1D9BDE"/>
<rect x="90" y="108" width="6" height="6" fill="#0A2136"/>
<rect x="96" y="108" width="30" height="6" fill="#FF9683"/>
<rect x="126" y="108" width="6" height="6" fill="#EAF8FF"/>
<rect x="132" y="108" width="6" height="6" fill="#0A2136"/>
<rect x="138" y="108" width="12" height="6" fill="#1D9BDE"/>
<rect x="150" y="108" width="60" height="6" fill="#43C2F2"/>
<rect x="210" y="108" width="6" height="6" fill="#0B1E36"/>
<rect x="30" y="114" width="6" height="6" fill="#0B1E36"/>
<rect x="36" y="114" width="60" height="6" fill="#1D9BDE"/>
<rect x="96" y="114" width="36" height="6" fill="#0A2136"/>
<rect x="132" y="114" width="12" height="6" fill="#1D9BDE"/>
<rect x="144" y="114" width="60" height="6" fill="#43C2F2"/>
<rect x="204" y="114" width="6" height="6" fill="#0B1E36"/>
<rect x="228" y="114" width="6" height="6" fill="#FFD166"/>
<rect x="36" y="120" width="12" height="6" fill="#0B1E36"/>
<rect x="48" y="120" width="84" height="6" fill="#1D9BDE"/>
<rect x="132" y="120" width="60" height="6" fill="#43C2F2"/>
<rect x="192" y="120" width="12" height="6" fill="#0B1E36"/>
<rect x="222" y="120" width="6" height="6" fill="#FFD166"/>
<rect x="228" y="120" width="6" height="6" fill="#F4FDFF"/>
<rect x="234" y="120" width="6" height="6" fill="#FFD166"/>
<rect x="24" y="126" width="6" height="6" fill="#FFD166"/>
<rect x="48" y="126" width="18" height="6" fill="#0B1E36"/>
<rect x="66" y="126" width="60" height="6" fill="#1D9BDE"/>
<rect x="126" y="126" width="48" height="6" fill="#43C2F2"/>
<rect x="174" y="126" width="18" height="6" fill="#0B1E36"/>
<rect x="228" y="126" width="6" height="6" fill="#FFD166"/>
<rect x="18" y="132" width="6" height="6" fill="#FFD166"/>
<rect x="24" y="132" width="6" height="6" fill="#F4FDFF"/>
<rect x="30" y="132" width="6" height="6" fill="#FFD166"/>
<rect x="66" y="132" width="108" height="6" fill="#0B1E36"/>
<rect x="24" y="138" width="6" height="6" fill="#FFD166"/>
</g>
<text x="300.0" y="476.8" text-anchor="middle" font-family="&quot;Press Start 2P&quot;, monospace" font-size="46" fill="#0A1424">FLOW</text>
<text x="300.0" y="524.8" text-anchor="middle" font-family="Inter, sans-serif" font-size="21" font-weight="700" fill="#0A1424">Level Up Your Hydration</text>
</svg>