<svg viewBox="0 0 72 78" xmlns="http://www.w3.org/2000/svg" shape-rendering="crispEdges" role="img">
<rect x="12" y="0" width="6" height="6" fill="#0B1E36"/>
<rect x="54" y="0" width="6" height="6" fill="#0B1E36"/>
<rect x="0" y="6" width="72" height="6" fill="#0B1E36"/>
<rect x="0" y="12" width="6" height="6" fill="#0B1E36"/>
<rect x="6" y="12" width="60" height="6" fill="#FFFFFF"/>
<rect x="66" y="12" width="6" height="6" fill="#0B1E36"/>
<rect x="0" y="18" width="6" height="6" fill="#0B1E36"/>
<rect x="6" y="18" width="60" height="6" fill="#FFFFFF"/>
<rect x="66" y="18" width="6" height="6" fill="#0B1E36"/>
<rect x="0" y="24" width="72" height="6" fill="#0B1E36"/>
<rect x="0" y="30" width="6" height="6" fill="#0B1E36"/>
<rect x="12" y="30" width="6" height="6" fill="#0B1E36"/>
<rect x="30" y="30" width="6" height="6" fill="#0B1E36"/>
<rect x="48" y="30" width="6" height="6" fill="#0B1E36"/>
<rect x="66" y="30" width="6" height="6" fill="#0B1E36"/>
<rect x="0" y="36" width="6" height="6" fill="#0B1E36"/>
<rect x="66" y="36" width="6" height="6" fill="#0B1E36"/>
<rect x="0" y="42" width="6" height="6" fill="#0B1E36"/>
<rect x="12" y="42" width="6" height="6" fill="#0B1E36"/>
<rect x="30" y="42" width="6" height="6" fill="#0B1E36"/>
<rect x="48" y="42" width="6" height="6" fill="#0B1E36"/>
<rect x="66" y="42" width="6" height="6" fill="#0B1E36"/>
<rect x="0" y="48" width="6" height="6" fill="#0B1E36"/>
<rect x="66" y="48" width="6" height="6" fill="#0B1E36"/>
<rect x="0" y="54" width="6" height="6" fill="#0B1E36"/>
<rect x="12" y="54" width="6" height="6" fill="#0B1E36"/>
<rect x="30" y="54" width="6" height="6" fill="#0B1E36"/>
<rect x="48" y="54" width="6" height="6" fill="#0B1E36"/>
<rect x="66" y="54" width="6" height="6" fill="#0B1E36"/>
<rect x="0" y="60" width="6" height="6" fill="#0B1E36"/>
<rect x="66" y="60" width="6" height="6" fill="#0B1E36"/>
<rect x="0" y="66" width="72" height="6" fill="#0B1E36"/>
</svg>
