<svg viewBox="0 0 60 84" xmlns="http://www.w3.org/2000/svg" shape-rendering="crispEdges" role="img">
<rect x="18" y="0" width="24" height="6" fill="#0B1E36"/>
<rect x="6" y="6" width="12" height="6" fill="#0B1E36"/>
<rect x="42" y="6" width="12" height="6" fill="#0B1E36"/>
<rect x="0" y="12" width="6" height="6" fill="#0B1E36"/>
<rect x="6" y="12" width="48" height="6" fill="#FFC542"/>
<rect x="54" y="12" width="6" height="6" fill="#0B1E36"/>
<rect x="0" y="18" width="6" height="6" fill="#0B1E36"/>
<rect x="6" y="18" width="48" height="6" fill="#FFC542"/>
<rect x="54" y="18" width="6" height="6" fill="#0B1E36"/>
<rect x="0" y="24" width="6" height="6" fill="#0B1E36"/>
<rect x="6" y="24" width="18" height="6" fill="#FFC542"/>
<rect x="24" y="24" width="12" height="6" fill="#FFFFFF"/>
<rect x="36" y="24" width="18" height="6" fill="#FFC542"/>
<rect x="54" y="24" width="6" height="6" fill="#0B1E36"/>
<rect x="6" y="30" width="6" height="6" fill="#0B1E36"/>
<rect x="12" y="30" width="36" height="6" fill="#FFC542"/>
<rect x="48" y="30" width="6" height="6" fill="#0B1E36"/>
<rect x="12" y="36" width="6" height="6" fill="#0B1E36"/>
<rect x="18" y="36" width="24" height="6" fill="#FFC542"/>
<rect x="42" y="36" width="6" height="6" fill="#0B1E36"/>
<rect x="18" y="42" width="24" height="6" fill="#0B1E36"/>
<rect x="18" y="54" width="24" height="6" fill="#0B1E36"/>
<rect x="18" y="60" width="24" height="6" fill="#0B1E36"/>
<rect x="18" y="66" width="24" height="6" fill="#0B1E36"/>
<rect x="18" y="72" width="24" height="6" fill="#0B1E36"/>
</svg>
