<svg viewBox="0 0 240 312" xmlns="http://www.w3.org/2000/svg" shape-rendering="crispEdges" role="img">
<rect x="0" y="0" width="240" height="6" fill="#0B1E36"/>
<rect x="0" y="6" width="12" height="6" fill="#0B1E36"/>
<rect x="228" y="6" width="12" height="6" fill="#0B1E36"/>
<rect x="0" y="12" width="6" height="6" fill="#0B1E36"/>
<rect x="234" y="12" width="6" height="6" fill="#0B1E36"/>
<rect x="6" y="12" width="6" height="6" fill="#0B1E36"/>
<rect x="0" y="18" width="6" height="6" fill="#0B1E36"/>
<rect x="234" y="18" width="6" height="6" fill="#0B1E36"/>
<rect x="6" y="18" width="6" height="6" fill="#0B1E36"/>
<rect x="18" y="18" width="6" height="6" fill="#F4FDFF"/>
<rect x="0" y="24" width="6" height="6" fill="#0B1E36"/>
<rect x="234" y="24" width="6" height="6" fill="#0B1E36"/>
<rect x="6" y="24" width="6" height="6" fill="#0B1E36"/>
<rect x="18" y="24" width="6" height="6" fill="#F4FDFF"/>
<rect x="0" y="30" width="6" height="6" fill="#0B1E36"/>
<rect x="234" y="30" width="6" height="6" fill="#0B1E36"/>
<rect x="6" y="30" width="6" height="6" fill="#0B1E36"/>
<rect x="18" y="30" width="6" height="6" fill="#F4FDFF"/>
<rect x="0" y="36" width="6" height="6" fill="#0B1E36"/>
<rect x="234" y="36" width="6" height="6" fill="#0B1E36"/>
<rect x="6" y="36" width="6" height="6" fill="#0B1E36"/>
<rect x="18" y="36" width="6" height="6" fill="#F4FDFF"/>
<rect x="6" y="42" width="6" height="6" fill="#0B1E36"/>
<rect x="228" y="42" width="6" height="6" fill="#0B1E36"/>
<rect x="12" y="42" width="6" height="6" fill="#0B1E36"/>
<rect x="24" y="42" width="6" height="6" fill="#F4FDFF"/>
<rect x="6" y="48" width="6" height="6" fill="#0B1E36"/>
<rect x="228" y="48" width="6" height="6" fill="#0B1E36"/>
<rect x="12" y="48" width="6" height="6" fill="#0B1E36"/>
<rect x="24" y="48" width="6" height="6" fill="#F4FDFF"/>
<rect x="6" y="54" width="6" height="6" fill="#0B1E36"/>
<rect x="228" y="54" width="6" height="6" fill="#0B1E36"/>
<rect x="12" y="54" width="6" height="6" fill="#0B1E36"/>
<rect x="24" y="54" width="6" height="6" fill="#F4FDFF"/>
<rect x="6" y="60" width="6" height="6" fill="#0B1E36"/>
<rect x="228" y="60" width="6" height="6" fill="#0B1E36"/>
<rect x="12" y="60" width="6" height="6" fill="#0B1E36"/>
<rect x="24" y="60" width="6" height="6" fill="#F4FDFF"/>
<rect x="6" y="66" width="6" height="6" fill="#0B1E36"/>
<rect x="228" y="66" width="6" height="6" fill="#0B1E36"/>
<rect x="12" y="66" width="6" height="6" fill="#0B1E36"/>
<rect x="24" y="66" width="6" height="6" fill="#F4FDFF"/>
<rect x="6" y="72" width="6" height="6" fill="#0B1E36"/>
<rect x="228" y="72" width="6" height="6" fill="#0B1E36"/>
<rect x="12" y="72" width="6" height="6" fill="#0B1E36"/>
<rect x="24" y="72" width="6" height="6" fill="#F4FDFF"/>
<rect x="6" y="78" width="6" height="6" fill="#0B1E36"/>
<rect x="228" y="78" width="6" height="6" fill="#0B1E36"/>
<rect x="12" y="78" width="6" height="6" fill="#0B1E36"/>
<rect x="24" y="78" width="6" height="6" fill="#F4FDFF"/>
<rect x="6" y="84" width="6" height="6" fill="#0B1E36"/>
<rect x="228" y="84" width="6" height="6" fill="#0B1E36"/>
<rect x="12" y="84" width="6" height="6" fill="#0B1E36"/>
<rect x="24" y="84" width="6" height="6" fill="#F4FDFF"/>
<rect x="6" y="90" width="6" height="6" fill="#0B1E36"/>
<rect x="228" y="90" width="6" height="6" fill="#0B1E36"/>
<rect x="12" y="90" width="6" height="6" fill="#0B1E36"/>
<rect x="24" y="90" width="6" height="6" fill="#F4FDFF"/>
<rect x="6" y="96" width="6" height="6" fill="#0B1E36"/>
<rect x="228" y="96" width="6" height="6" fill="#0B1E36"/>
<rect x="12" y="96" width="6" height="6" fill="#0B1E36"/>
<rect x="24" y="96" width="6" height="6" fill="#F4FDFF"/>
<rect x="6" y="102" width="6" height="6" fill="#0B1E36"/>
<rect x="228" y="102" width="6" height="6" fill="#0B1E36"/>
<rect x="12" y="102" width="6" height="6" fill="#0B1E36"/>
<rect x="24" y="102" width="6" height="6" fill="#F4FDFF"/>
<rect x="6" y="108" width="6" height="6" fill="#0B1E36"/>
<rect x="228" y="108" width="6" height="6" fill="#0B1E36"/>
<rect x="12" y="108" width="6" height="6" fill="#0B1E36"/>
<rect x="24" y="108" width="6" height="6" fill="#F4FDFF"/>
<rect x="6" y="114" width="6" height="6" fill="#0B1E36"/>
<rect x="228" y="114" width="6" height="6" fill="#0B1E36"/>
<rect x="12" y="114" width="6" height="6" fill="#0B1E36"/>
<rect x="24" y="114" width="6" height="6" fill="#F4FDFF"/>
<rect x="12" y="120" width="6" height="6" fill="#0B1E36"/>
<rect x="222" y="120" width="6" height="6" fill="#0B1E36"/>
<rect x="18" y="120" width="6" height="6" fill="#0B1E36"/>
<rect x="30" y="120" width="6" height="6" fill="#F4FDFF"/>
<rect x="12" y="126" width="6" height="6" fill="#0B1E36"/>
<rect x="222" y="126" width="6" height="6" fill="#0B1E36"/>
<rect x="18" y="126" width="6" height="6" fill="#0B1E36"/>
<rect x="30" y="126" width="6" height="6" fill="#F4FDFF"/>
<rect x="12" y="132" width="6" height="6" fill="#0B1E36"/>
<rect x="222" y="132" width="6" height="6" fill="#0B1E36"/>
<rect x="18" y="132" width="6" height="6" fill="#0B1E36"/>
<rect x="30" y="132" width="6" height="6" fill="#F4FDFF"/>
<rect x="12" y="138" width="6" height="6" fill="#0B1E36"/>
<rect x="222" y="138" width="6" height="6" fill="#0B1E36"/>
<rect x="18" y="138" width="6" height="6" fill="#0B1E36"/>
<rect x="30" y="138" width="6" height="6" fill="#F4FDFF"/>
<rect x="12" y="144" width="6" height="6" fill="#0B1E36"/>
<rect x="222" y="144" width="6" height="6" fill="#0B1E36"/>
<rect x="18" y="144" width="6" height="6" fill="#0B1E36"/>
<rect x="30" y="144" width="6" height="6" fill="#F4FDFF"/>
<rect x="12" y="150" width="6" height="6" fill="#0B1E36"/>
<rect x="222" y="150" width="6" height="6" fill="#0B1E36"/>
<rect x="18" y="150" width="6" height="6" fill="#0B1E36"/>
<rect x="30" y="150" width="6" height="6" fill="#F4FDFF"/>
<rect x="12" y="156" width="6" height="6" fill="#0B1E36"/>
<rect x="222" y="156" width="6" height="6" fill="#0B1E36"/>
<rect x="18" y="156" width="6" height="6" fill="#0B1E36"/>
<rect x="30" y="156" width="6" height="6" fill="#F4FDFF"/>
<rect x="12" y="162" width="6" height="6" fill="#0B1E36"/>
<rect x="222" y="162" width="6" height="6" fill="#0B1E36"/>
<rect x="18" y="162" width="6" height="6" fill="#0B1E36"/>
<rect x="30" y="162" width="6" height="6" fill="#F4FDFF"/>
<rect x="12" y="168" width="6" height="6" fill="#0B1E36"/>
<rect x="222" y="168" width="6" height="6" fill="#0B1E36"/>
<rect x="18" y="168" width="6" height="6" fill="#0B1E36"/>
<rect x="30" y="168" width="6" height="6" fill="#F4FDFF"/>
<rect x="12" y="174" width="6" height="6" fill="#0B1E36"/>
<rect x="222" y="174" width="6" height="6" fill="#0B1E36"/>
<rect x="18" y="174" width="6" height="6" fill="#0B1E36"/>
<rect x="30" y="174" width="6" height="6" fill="#F4FDFF"/>
<rect x="12" y="180" width="6" height="6" fill="#0B1E36"/>
<rect x="222" y="180" width="6" height="6" fill="#0B1E36"/>
<rect x="18" y="180" width="6" height="6" fill="#0B1E36"/>
<rect x="30" y="180" width="6" height="6" fill="#F4FDFF"/>
<rect x="12" y="186" width="6" height="6" fill="#0B1E36"/>
<rect x="222" y="186" width="6" height="6" fill="#0B1E36"/>
<rect x="18" y="186" width="6" height="6" fill="#0B1E36"/>
<rect x="30" y="186" width="6" height="6" fill="#F4FDFF"/>
<rect x="18" y="192" width="6" height="6" fill="#0B1E36"/>
<rect x="216" y="192" width="6" height="6" fill="#0B1E36"/>
<rect x="24" y="192" width="6" height="6" fill="#0B1E36"/>
<rect x="36" y="192" width="6" height="6" fill="#F4FDFF"/>
<rect x="18" y="198" width="6" height="6" fill="#0B1E36"/>
<rect x="216" y="198" width="6" height="6" fill="#0B1E36"/>
<rect x="24" y="198" width="6" height="6" fill="#0B1E36"/>
<rect x="36" y="198" width="6" height="6" fill="#F4FDFF"/>
<rect x="18" y="204" width="6" height="6" fill="#0B1E36"/>
<rect x="216" y="204" width="6" height="6" fill="#0B1E36"/>
<rect x="24" y="204" width="6" height="6" fill="#0B1E36"/>
<rect x="36" y="204" width="6" height="6" fill="#F4FDFF"/>
<rect x="18" y="210" width="6" height="6" fill="#0B1E36"/>
<rect x="216" y="210" width="6" height="6" fill="#0B1E36"/>
<rect x="24" y="210" width="6" height="6" fill="#0B1E36"/>
<rect x="36" y="210" width="6" height="6" fill="#F4FDFF"/>
<rect x="18" y="216" width="6" height="6" fill="#0B1E36"/>
<rect x="216" y="216" width="6" height="6" fill="#0B1E36"/>
<rect x="24" y="216" width="6" height="6" fill="#0B1E36"/>
<rect x="36" y="216" width="6" height="6" fill="#F4FDFF"/>
<rect x="18" y="222" width="6" height="6" fill="#0B1E36"/>
<rect x="216" y="222" width="6" height="6" fill="#0B1E36"/>
<rect x="24" y="222" width="6" height="6" fill="#0B1E36"/>
<rect x="36" y="222" width="6" height="6" fill="#F4FDFF"/>
<rect x="18" y="228" width="6" height="6" fill="#0B1E36"/>
<rect x="216" y="228" width="6" height="6" fill="#0B1E36"/>
<rect x="24" y="228" width="6" height="6" fill="#0B1E36"/>
<rect x="36" y="228" width="6" height="6" fill="#F4FDFF"/>
<rect x="18" y="234" width="6" height="6" fill="#0B1E36"/>
<rect x="216" y="234" width="6" height="6" fill="#0B1E36"/>
<rect x="24" y="234" width="6" height="6" fill="#0B1E36"/>
<rect x="36" y="234" width="6" height="6" fill="#F4FDFF"/>
<rect x="18" y="240" width="6" height="6" fill="#0B1E36"/>
<rect x="216" y="240" width="6" height="6" fill="#0B1E36"/>
<rect x="24" y="240" width="6" height="6" fill="#0B1E36"/>
<rect x="36" y="240" width="6" height="6" fill="#F4FDFF"/>
<rect x="18" y="246" width="6" height="6" fill="#0B1E36"/>
<rect x="216" y="246" width="6" height="6" fill="#0B1E36"/>
<rect x="24" y="246" width="6" height="6" fill="#0B1E36"/>
<rect x="36" y="246" width="6" height="6" fill="#F4FDFF"/>
<rect x="18" y="252" width="6" height="6" fill="#0B1E36"/>
<rect x="216" y="252" width="6" height="6" fill="#0B1E36"/>
<rect x="24" y="252" width="6" height="6" fill="#0B1E36"/>
<rect x="36" y="252" width="6" height="6" fill="#F4FDFF"/>
<rect x="18" y="258" width="6" height="6" fill="#0B1E36"/>
<rect x="216" y="258" width="6" height="6" fill="#0B1E36"/>
<rect x="24" y="258" width="6" height="6" fill="#0B1E36"/>
<rect x="36" y="258" width="6" height="6" fill="#F4FDFF"/>
<rect x="18" y="264" width="6" height="6" fill="#0B1E36"/>
<rect x="216" y="264" width="6" height="6" fill="#0B1E36"/>
<rect x="24" y="264" width="6" height="6" fill="#0B1E36"/>
<rect x="36" y="264" width="6" height="6" fill="#F4FDFF"/>
<rect x="24" y="270" width="6" height="6" fill="#0B1E36"/>
<rect x="210" y="270" width="6" height="6" fill="#0B1E36"/>
<rect x="30" y="270" width="6" height="6" fill="#0B1E36"/>
<rect x="42" y="270" width="6" height="6" fill="#F4FDFF"/>
<rect x="24" y="276" width="6" height="6" fill="#0B1E36"/>
<rect x="210" y="276" width="6" height="6" fill="#0B1E36"/>
<rect x="30" y="276" width="6" height="6" fill="#0B1E36"/>
<rect x="42" y="276" width="6" height="6" fill="#F4FDFF"/>
<rect x="24" y="282" width="6" height="6" fill="#0B1E36"/>
<rect x="210" y="282" width="6" height="6" fill="#0B1E36"/>
<rect x="30" y="282" width="6" height="6" fill="#0B1E36"/>
<rect x="42" y="282" width="6" height="6" fill="#F4FDFF"/>
<rect x="24" y="288" width="6" height="6" fill="#0B1E36"/>
<rect x="210" y="288" width="6" height="6" fill="#0B1E36"/>
<rect x="30" y="288" width="6" height="6" fill="#0B1E36"/>
<rect x="30" y="294" width="6" height="6" fill="#0B1E36"/>
<rect x="204" y="294" width="6" height="6" fill="#0B1E36"/>
<rect x="36" y="294" width="6" height="6" fill="#0B1E36"/>
<rect x="36" y="300" width="6" height="6" fill="#0B1E36"/>
<rect x="198" y="300" width="6" height="6" fill="#0B1E36"/>
<rect x="42" y="300" width="6" height="6" fill="#0B1E36"/>
<rect x="42" y="306" width="6" height="6" fill="#0B1E36"/>
<rect x="192" y="306" width="6" height="6" fill="#0B1E36"/>
<rect x="48" y="306" width="6" height="6" fill="#0B1E36"/>
</svg>
